#!OML:ASF I:\golf\golf\golf 2\Subject 1\2002-09-07\Subject1.ASF
:FULLY-SPECIFIED
:DEGREES
310
root -5.41756 18.0628 -4.33711 -168.455 -2.79808 -176.27
lowerback -9.7549 16.9487 14.1537
upperback -14.6483 19.1888 1.38033
thorax -6.81168 7.16016 -4.14815
lowerneck -6.03703 -19.7602 -4.92975
upperneck 10.2453 -26.9068 2.14471
head 4.97328 -13.416 -0.464329
rclavicle 1.38354e-013 1.59028e-015
rhumerus 107.155 32.1432 -47.5678
rradius 89.8192
rwrist 14.5435
rhand -40.1463 34.2734
rfingers 7.12502
rthumb -13.1088 4.70542
lclavicle 1.38354e-013 1.59028e-015
lhumerus 63.7366 22.7067 67.6088
lradius 103.286
lwrist 15.0337
lhand -32.5225 12.0623
lfingers 7.12502
lthumb -185.753 -138.036
rfemur 17.2786 -8.07312 20.6948
rtibia 13.2393
rfoot 28.5631 -30.7238
rtoes 16.8264
lfemur -24.0721 -18.1316 -14.9093
ltibia 24.2997
lfoot 42.4788 -43.5862
ltoes 52.6924
311
root -5.40978 18.0597 -4.37125 -168.435 -3.1924 -176.235
lowerback -9.87588 17.0184 14.1518
upperback -14.8377 19.2388 1.24607
thorax -6.91342 7.15328 -4.2626
lowerneck -5.55764 -19.7493 -4.91558
upperneck 9.98299 -26.9198 2.23657
head 4.82812 -13.4343 -0.374251
rclavicle -7.55382e-014 -9.14409e-014
rhumerus 107.482 31.6703 -47.2836
rradius 90.3078
rwrist 14.5793
rhand -40.9447 34.8694
rfingers 7.12502
rthumb -13.8783 5.35251
lclavicle -7.55382e-014 -9.14409e-014
lhumerus 64.1548 23.1942 67.8383
lradius 104.124
lwrist 13.4004
lhand -32.6189 11.8088
lfingers 7.12502
lthumb -185.846 -138.292
rfemur 17.4529 -7.70774 20.9979
rtibia 12.942
rfoot 29.3665 -30.1246
rtoes 14.597
lfemur -24.1227 -18.1506 -14.8473
ltibia 24.4596
lfoot 42.8652 -43.8089
ltoes 52.7957
312
root -5.40471 18.0536 -4.4016 -168.482 -3.57069 -176.161
lowerback -9.96015 17.0242 14.2895
upperback -14.8826 19.2179 1.19326
thorax -6.86868 7.12909 -4.35909
lowerneck -5.54183 -19.697 -4.84342
upperneck 9.93027 -26.842 2.20827
head 4.79362 -13.3963 -0.375232
rclavicle -6.67916e-014 4.77083e-015
rhumerus 108.148 31.2511 -46.8469
rradius 90.6027
rwrist 14.511
rhand -41.7365 35.5148
rfingers 7.12502
rthumb -14.6413 6.05164
lclavicle -6.67916e-014 4.77083e-015
lhumerus 64.6451 24.0105 68.0947
lradius 104.932
lwrist 12.2012
lhand -33.141 11.9364
lfingers 7.12502
lthumb -186.35 -138.179
rfemur 17.6946 -7.42089 21.2972
rtibia 12.723
rfoot 29.0981 -30.6821
rtoes 15.6058
lfemur -24.0952 -18.0682 -14.7909
ltibia 24.5871
lfoot 43.5046 -43.8435
ltoes 53.0405
313
root -5.40403 18.0487 -4.42861 -168.439 -3.88695 -176.257
lowerback -10.0902 17.028 14.3148
upperback -14.8702 19.2032 1.09179
thorax -6.74474 7.1327 -4.43847
lowerneck -6.15215 -19.6985 -4.71529
upperneck 10.4701 -26.8041 1.85339
head 4.99109 -13.3731 -0.573173
rclavicle 2.08724e-013 1.32788e-013
rhumerus 108.886 30.7783 -46.2887
rradius 90.9951
rwrist 14.2541
rhand -42.6566 35.87
rfingers 7.12502
rthumb -15.5276 6.47348
lclavicle 2.08724e-013 1.32788e-013
lhumerus 65.3054 24.681 68.5587
lradius 105.526
lwrist 11.0019
lhand -33.8405 13.0652
lfingers 7.12502
lthumb -187.026 -137.071
rfemur 17.8653 -7.32582 21.3056
rtibia 12.4725
rfoot 29.1657 -31.0764
rtoes 17.0617
lfemur -24.1602 -17.9545 -14.9217
ltibia 24.7339
lfoot 44.182 -43.8043
ltoes 53.2446
314
root -5.4038 18.0434 -4.45722 -168.359 -4.16729 -176.393
lowerback -10.2664 17.0897 14.2896
upperback -14.9162 19.2468 0.960485
thorax -6.65874 7.15713 -4.50999
lowerneck -6.56153 -19.7355 -4.6524
upperneck 10.9551 -26.8228 1.51909
head 5.15348 -13.3858 -0.740633
rclavicle -1.47101e-014 -5.32743e-014
rhumerus 109.361 30.2978 -45.8202
rradius 91.3484
rwrist 13.998
rhand -43.4727 36.3488
rfingers 7.12502
rthumb -16.3135 7.01498
lclavicle -1.47101e-014 -5.32743e-014
lhumerus 65.8114 25.0366 69.1361
lradius 106.056
lwrist 9.87592
lhand -34.4384 14.0588
lfingers 7.12502
lthumb -187.603 -136.098
rfemur 17.9946 -7.3942 21.1971
rtibia 12.2243
rfoot 30.2753 -30.2124
rtoes 15.7766
lfemur -24.2407 -17.8911 -15.0848
ltibia 24.8898
lfoot 44.6307 -43.8421
ltoes 53.2943
315
root -5.40288 18.0339 -4.48716 -168.42 -4.51486 -176.468
lowerback -10.3461 17.1486 14.372
upperback -15.0089 19.298 0.837337
thorax -6.65038 7.16518 -4.64659
lowerneck -6.43393 -19.7693 -4.76254
upperneck 11.0184 -26.87 1.4986
head 5.1661 -13.417 -0.731375
rclavicle 1.00187e-013 -5.56597e-015
rhumerus 109.552 29.8819 -45.5003
rradius 91.5805
rwrist 13.8189
rhand -44.2842 37.1851
rfingers 7.12502
rthumb -17.0948 7.9172
lclavicle 1.00187e-013 -5.56597e-015
lhumerus 66.1313 25.238 69.713
lradius 106.533
lwrist 8.77151
lhand -34.5994 13.9116
lfingers 7.12502
lthumb -187.758 -136.251
rfemur 18.2521 -7.42899 21.1984
rtibia 12.0381
rfoot 30.9363 -29.7142
rtoes 15.3379
lfemur -24.1402 -17.922 -15.2191
ltibia 25.0079
lfoot 45.1438 -43.6154
ltoes 53.6289
316
root -5.40122 18.0253 -4.51618 -168.496 -4.88823 -176.61
lowerback -10.3989 17.1739 14.4253
upperback -15.0806 19.3234 0.681186
thorax -6.63127 7.16925 -4.81404
lowerneck -6.36255 -19.7937 -4.82337
upperneck 11.064 -26.9074 1.50179
head 5.1787 -13.4392 -0.724389
rclavicle -2.66371e-014 -3.02153e-014
rhumerus 109.708 29.5406 -45.2815
rradius 91.6439
rwrist 13.768
rhand -45.1421 38.4638
rfingers 7.12502
rthumb -17.9204 9.26939
lclavicle -2.66371e-014 -3.02153e-014
lhumerus 66.5586 25.3082 70.2924
lradius 106.78
lwrist 7.48905
lhand -34.4817 13.3906
lfingers 7.12502
lthumb -187.644 -136.768
rfemur 18.5264 -7.3881 21.2021
rtibia 11.8558
rfoot 30.7253 -30.2598
rtoes 16.6493
lfemur -24.029 -17.9912 -15.4305
ltibia 25.1025
lfoot 45.7804 -43.1134
ltoes 54.2821
317
root -5.39683 18.0225 -4.54409 -168.443 -5.20418 -176.84
lowerback -10.5363 17.2841 14.3175
upperback -15.1539 19.4473 0.525457
thorax -6.59814 7.23606 -4.87306
lowerneck -6.29383 -19.866 -5.04731
upperneck 11.0699 -26.9788 1.49434
head 5.19928 -13.4801 -0.706765
rclavicle -4.85035e-014 -3.57812e-014
rhumerus 109.747 29.1851 -44.9593
rradius 91.6827
rwrist 13.5407
rhand -45.7218 39.7285
rfingers 7.12502
rthumb -18.4781 10.5861
lclavicle -4.85035e-014 -3.57812e-014
lhumerus 66.9936 25.3621 70.9822
lradius 106.898
lwrist 6.19005
lhand -34.413 13.3702
lfingers 7.12502
lthumb -187.578 -136.786
rfemur 18.6642 -7.40327 21.1149
rtibia 11.6589
rfoot 30.5866 -30.6833
rtoes 17.3132
lfemur -24.0667 -17.9529 -15.7054
ltibia 25.1931
lfoot 46.2741 -43.0009
ltoes 54.6423
318
root -5.39169 18.0227 -4.57139 -168.325 -5.47886 -176.952
lowerback -10.7408 17.4196 14.2676
upperback -15.26 19.5657 0.428428
thorax -6.5749 7.28389 -4.88358
lowerneck -6.14893 -19.9134 -5.27935
upperneck 10.9595 -27.0066 1.48319
head 5.17056 -13.5019 -0.669021
rclavicle -7.59357e-014 -1.11319e-014
rhumerus 109.723 28.9126 -44.707
rradius 91.7238
rwrist 13.1722
rhand -46.4623 40.535
rfingers 7.12502
rthumb -19.1902 11.4618
lclavicle -7.59357e-014 -1.11319e-014
lhumerus 67.2467 25.5761 71.4445
lradius 107.019
lwrist 5.21588
lhand -34.4639 13.488
lfingers 7.12502
lthumb -187.627 -136.67
rfemur 18.6776 -7.36254 21.1665
rtibia 11.5156
rfoot 30.5278 -31.0327
rtoes 18.0023
lfemur -24.1669 -17.7766 -15.8395
ltibia 25.2605
lfoot 46.7584 -43.1037
ltoes 54.7645
319
root -5.39038 18.0215 -4.59552 -168.232 -5.77369 -176.942
lowerback -10.9706 17.3795 14.3823
upperback -15.327 19.4335 0.38104
thorax -6.50627 7.1968 -4.95196
lowerneck -6.3165 -19.8053 -4.96934
upperneck 11.0003 -26.8424 1.25751
head 5.13365 -13.4226 -0.756853
rclavicle 3.18055e-015 -3.65764e-014
rhumerus 110.003 28.9965 -44.7505
rradius 91.6901
rwrist 13.0194
rhand -47.5174 41.03
rfingers 7.12502
rthumb -20.2046 12.0608
lclavicle 3.18055e-015 -3.65764e-014
lhumerus 67.3902 26.0039 71.3405
lradius 107.057
lwrist 4.47403
lhand -34.5027 13.2734
lfingers 7.12502
lthumb -187.665 -136.886
rfemur 18.6463 -7.29773 21.3452
rtibia 11.4683
rfoot 30.5982 -31.245
rtoes 18.4504
lfemur -24.2368 -17.62 -15.8469
ltibia 25.2996
lfoot 47.2707 -43.134
ltoes 54.9597
